<?xml version="1.0" encoding="iso-8859-1"?>
<!-- Generator: Adobe Illustrator 18.1.1, SVG Export Plug-In . SVG Version: 6.00 Build 0)  -->
<svg version="1.1" id="Capa_1" xmlns="http://www.w3.org/2000/svg" xmlns:xlink="http://www.w3.org/1999/xlink" x="0px" y="0px"
	 viewBox="0 0 13.864 13.864" style="enable-background:new 0 0 13.864 13.864;" xml:space="preserve">
<g>
	<g>
		<path style="fill:#030104;" d="M4.957,7.314H4.434v1.912c0.15,0.02,0.332,0.02,0.593,0.02c0.694,0,1.308-0.262,1.308-0.975
			C6.334,7.586,5.721,7.314,4.957,7.314z"/>
		<path style="fill:#030104;" d="M6.173,5.383c0-0.513-0.392-0.784-1.086-0.784c-0.332,0-0.522,0.02-0.653,0.041v1.579h0.502
			C5.741,6.218,6.173,5.886,6.173,5.383z"/>
		<path style="fill:#030104;" d="M12.671,0H1.191C0.535,0,0,0.535,0,1.192v11.479c0,0.657,0.535,1.193,1.191,1.193h11.48
			c0.657,0,1.193-0.536,1.193-1.193V1.192C13.865,0.535,13.329,0,12.671,0z M7.24,9.768c-0.493,0.392-1.317,0.613-2.666,0.613
			c-0.754,0-1.318-0.051-1.659-0.102V3.623c0.402-0.081,1.217-0.141,1.981-0.141c0.934,0,1.508,0.091,2,0.382
			C7.369,4.115,7.71,4.578,7.71,5.192c0,0.604-0.352,1.167-1.116,1.449v0.02C7.368,6.872,7.941,7.455,7.941,8.33
			C7.943,8.943,7.661,9.427,7.24,9.768z M11.959,6.741C11.848,6.72,11.718,6.7,11.546,6.7c-0.563,0-0.944,0.302-1.046,0.774
			c-0.021,0.1-0.03,0.221-0.03,0.342v2.494H8.942V7.011c0-0.724-0.02-1.197-0.041-1.619h1.319l0.049,0.906h0.041
			c0.25-0.714,0.854-1.016,1.327-1.016c0.141,0,0.211,0,0.322,0.02V6.741z"/>
	</g>
</g>
<g>
</g>
<g>
</g>
<g>
</g>
<g>
</g>
<g>
</g>
<g>
</g>
<g>
</g>
<g>
</g>
<g>
</g>
<g>
</g>
<g>
</g>
<g>
</g>
<g>
</g>
<g>
</g>
<g>
</g>
</svg>
