<?xml version="1.0" encoding="UTF-8"?>
<svg xmlns="http://www.w3.org/2000/svg" xmlns:xlink="http://www.w3.org/1999/xlink" width="96pt" height="96pt" viewBox="0 0 96 96" version="1.1">
<g id="surface1">
<path style=" stroke:none;fill-rule:nonzero;fill:#000000;fill-opacity:1;" d="M 46.828125 62.828125 C 46.046875 63.609375 45.03125 64 44 64 C 42.96875 64 41.953125 63.609375 41.171875 62.828125 L 25.171875 46.828125 C 23.609375 45.265625 23.609375 42.734375 25.171875 41.171875 C 26.734375 39.609375 29.265625 39.609375 30.828125 41.171875 L 44 54.34375 L 77.40625 20.9375 C 70.09375 13 59.640625 8 48 8 C 25.90625 8 8 25.90625 8 48 C 8 70.09375 25.90625 88 48 88 C 70.09375 88 88 70.09375 88 48 C 88 40.453125 85.875 33.4375 82.25 27.40625 Z "/>
</g>
</svg>
