<?xml version="1.0" encoding="UTF-8"?>
<svg xmlns="http://www.w3.org/2000/svg" xmlns:xlink="http://www.w3.org/1999/xlink" width="100pt" height="100pt" viewBox="0 0 100 100" version="1.1">
<g id="surface1">
<path style=" stroke:none;fill-rule:nonzero;fill:#000000;fill-opacity:1;" d="M 49.601563 3.96875 C 24.4375 3.96875 3.96875 24.4375 3.96875 49.601563 C 3.96875 74.769531 24.4375 95.238281 49.601563 95.238281 C 74.769531 95.238281 95.238281 74.769531 95.238281 49.601563 C 95.238281 40.558594 92.578125 32.117188 88.023438 25.019531 L 85.308594 28.234375 C 89.070313 34.488281 91.269531 41.78125 91.269531 49.601563 C 91.269531 72.574219 72.574219 91.269531 49.601563 91.269531 C 26.628906 91.269531 7.9375 72.574219 7.9375 49.601563 C 7.9375 26.628906 26.628906 7.9375 49.601563 7.9375 C 60.398438 7.9375 70.226563 12.105469 77.636719 18.863281 L 80.234375 15.804688 C 72.125 8.457031 61.375 3.96875 49.601563 3.96875 Z M 85.78125 15.382813 L 47.449219 60.625 L 31.3125 45.574219 L 28.605469 48.480469 L 47.78125 66.367188 L 88.820313 17.949219 Z "/>
</g>
</svg>
