<?xml version="1.0" encoding="UTF-8"?>
<svg xmlns="http://www.w3.org/2000/svg" xmlns:xlink="http://www.w3.org/1999/xlink" width="104pt" height="104pt" viewBox="0 0 104 104" version="1.1">
<g id="surface1">
<path style=" stroke:none;fill-rule:nonzero;fill:#000000;fill-opacity:1;" d="M 51.210938 3.9375 C 25.144531 3.9375 3.9375 25.144531 3.9375 51.210938 C 3.9375 77.28125 25.144531 98.484375 51.210938 98.484375 C 77.28125 98.484375 98.484375 77.28125 98.484375 51.210938 C 98.484375 25.144531 77.28125 3.9375 51.210938 3.9375 Z M 51.210938 11.816406 C 73.015625 11.816406 90.605469 29.40625 90.605469 51.210938 C 90.605469 73.015625 73.015625 90.605469 51.210938 90.605469 C 29.40625 90.605469 11.816406 73.015625 11.816406 51.210938 C 11.816406 29.40625 29.40625 11.816406 51.210938 11.816406 Z M 67.707031 27.820313 C 67.125 27.914063 66.632813 28.222656 66.230469 28.808594 L 46.902344 57.492188 L 37.792969 48.503906 C 37.007813 47.320313 35.5 47.226563 34.714844 48.011719 L 31.144531 51.582031 C 30.359375 52.765625 30.359375 54.367188 31.144531 55.152344 L 44.933594 68.9375 C 45.71875 69.339844 46.828125 70.171875 48.011719 70.171875 C 48.796875 70.171875 50.058594 69.753906 50.84375 68.570313 L 74.480469 33.855469 C 75.265625 32.667969 74.816406 31.5625 73.25 30.777344 L 69.308594 27.945313 C 68.910156 27.746094 68.292969 27.730469 67.707031 27.820313 Z "/>
</g>
</svg>
