<?xml version="1.0" encoding="iso-8859-1"?>
<!-- Generator: Adobe Illustrator 16.0.0, SVG Export Plug-In . SVG Version: 6.00 Build 0)  -->
<!DOCTYPE svg PUBLIC "-//W3C//DTD SVG 1.1//EN" "http://www.w3.org/Graphics/SVG/1.1/DTD/svg11.dtd">
<svg version="1.1" id="Capa_1" xmlns="http://www.w3.org/2000/svg" xmlns:xlink="http://www.w3.org/1999/xlink" x="0px" y="0px"
	 width="41.762px" height="41.762px" viewBox="0 0 41.762 41.762" style="enable-background:new 0 0 41.762 41.762;"
	 xml:space="preserve">
<g>
	<path d="M28.512,0.739c-0.312-0.125-0.688,0.044-0.812,0.354c-0.125,0.319,0.035,0.683,0.354,0.81
		c7.568,2.973,12.458,10.149,12.458,18.282c0,10.825-8.807,19.631-19.631,19.631c-10.824,0-19.631-8.807-19.631-19.631
		C1.248,12.277,5.955,5.176,13.243,2.097c0.316-0.137,0.465-0.505,0.331-0.82c-0.13-0.308-0.502-0.462-0.818-0.332
		C5.005,4.222-0.002,11.774,0,20.185c0,11.514,9.367,20.881,20.881,20.881c11.514,0,20.881-9.367,20.881-20.881
		C41.762,11.534,36.561,3.902,28.512,0.739z"/>
	<path d="M21.506,20.88V1.32c0-0.345-0.28-0.625-0.625-0.625c-0.345,0-0.625,0.28-0.625,0.625v19.561
		c0,0.345,0.28,0.625,0.625,0.625C21.226,21.506,21.506,21.225,21.506,20.88z"/>
</g>
<g>
</g>
<g>
</g>
<g>
</g>
<g>
</g>
<g>
</g>
<g>
</g>
<g>
</g>
<g>
</g>
<g>
</g>
<g>
</g>
<g>
</g>
<g>
</g>
<g>
</g>
<g>
</g>
<g>
</g>
</svg>
