<?xml version="1.0" encoding="UTF-8"?>
<svg xmlns="http://www.w3.org/2000/svg" xmlns:xlink="http://www.w3.org/1999/xlink" width="96pt" height="96pt" viewBox="0 0 96 96" version="1.1">
<g id="surface1">
<path style=" stroke:none;fill-rule:nonzero;fill:#000000;fill-opacity:1;" d="M 57 9 C 40.464844 9 27 22.464844 27 39 C 27 46.183594 29.519531 52.769531 33.75 57.9375 L 9.84375 81.84375 L 14.15625 86.15625 L 38.0625 62.25 C 43.230469 66.480469 49.816406 69 57 69 C 73.535156 69 87 55.535156 87 39 C 87 22.464844 73.535156 9 57 9 Z M 57 15 C 70.289063 15 81 25.710938 81 39 C 81 52.289063 70.289063 63 57 63 C 43.710938 63 33 52.289063 33 39 C 33 25.710938 43.710938 15 57 15 Z "/>
</g>
</svg>
